<?xml version="1.0" encoding="iso-8859-1"?>
<!-- Uploaded to: SVG Repo, www.svgrepo.com, Generator: SVG Repo Mixer Tools -->
<svg height="45px" width="45px" version="1.1" id="Layer_1" xmlns="http://www.w3.org/2000/svg" xmlns:xlink="http://www.w3.org/1999/xlink"
	 viewBox="0 0 512.008 512.008" xml:space="preserve">
<g transform="translate(0 -540.36)">
	<path style="fill:#D9D9D9;" d="M256.013,1052.368c-100.428,0-186.012-63.582-218.648-152.701
		c38.406,82.256,121.846,139.241,218.618,139.241c96.774,0,180.243-56.982,218.648-139.241
		C442.003,988.786,356.442,1052.368,256.013,1052.368L256.013,1052.368z"/>
	<g transform="matrix(1.0081 0 0 1.0081 684.47 -5.393)">
		<path style="fill:#F8F6DE;" d="M-176.421,789.97c0,137.299-111.303,248.602-248.602,248.602S-673.625,927.269-673.625,789.97
			s111.303-248.602,248.602-248.602S-176.421,652.671-176.421,789.97z"/>
		<path style="fill:#9ADBB6;" d="M-192.367,789.97c0,129.061-104.164,233.686-232.656,233.686h0
			c-128.493,0-232.657-104.625-232.657-233.686c0,0,0,0,0,0c0-129.061,104.164-233.686,232.656-233.686
			S-192.367,660.909-192.367,789.97L-192.367,789.97z"/>
		<g transform="translate(0 540.36)">
			<path style="fill:#F8F8F8;" d="M-473.291,58.683c-5.554,0.075-10.994,1.247-15.822,3.408c-4.438,1.99-8.231,4.76-11.084,8.094
				c-2.615-0.905-5.442-1.37-8.299-1.365c-11.297,0.035-20.431,7.252-20.432,16.143c29.851-0.373,59.478-0.142,89.354,0.311
				c0.229-9.379-5.957-18.133-16.203-22.928C-461.07,59.869-467.134,58.601-473.291,58.683z"/>
			<g>
				<path style="fill:#3C517D;" d="M-532.611,185.43l-87.902,64.453l-32.5,45.18c19.846,100.487,102.54,176.274,203.979,186.943
					h46.221c33.576-3.266,66.042-13.826,95.15-30.949l-129.904-231.492L-532.611,185.43z"/>
				<path style="fill:#3C517D;" d="M-300.793,259.125l-59.203,43.41l-112.463,156.342h150.725
					c52.223-26.078,92.79-70.905,113.666-125.602l-28.709-51.16L-300.793,259.125z"/>
			</g>
			<g>
				<path style="fill:#456196;" d="M-286.976,301.523l-80.414,16.152l-115.262,158.033c18.819,4.938,38.179,7.485,57.629,7.584
					c57.269-0.103,112.488-21.418,155.086-59.865L-286.976,301.523z"/>
				<path style="fill:#456196;" d="M-599.73,212.689l-54.434,77.221c16.645,95.301,90.041,170.443,184.588,188.979l-29.078-238.51
					L-599.73,212.689z"/>
			</g>
			<g>
				<path style="fill:#EAEAEA;" d="M-523.758,165.76c-39.633,0-74.117,34.719-91.898,65.549l-38.633,57.525l26.273-15.842
					c0.554,3.614,1.845,8.635,4.936,11.41c5.171,4.64,6.678-8.404,11.418-7.828s6.248,19.14,12.928,20.881
					c5.867,2.148,8.832-26.378,20.467-28.709c11.634-2.329,12.94,34.816,20.592,35.844c8.097,1.087,4.395-40.892,24.305-49.711
					c28.652-12.691,17.028,78.483,30.092,76.443c13.311-2.078,7.745-61.172,22.611-61.172s13.357,17.441,24.561,17.441
					s6.251-8.701,13.145-8.701s11.634,17.404,18.098,17.404c2.676,0,4.784-0.47,6.404-1.375l0.006,0.027l17.869-9.586
					l-25.844-48.334C-440.868,207.228-481.365,165.76-523.758,165.76L-523.758,165.76z"/>
				<path style="fill:#EAEAEA;" d="M-291.383,251.355c-29.342,0-53.515,22.524-63.658,41.67l-19.275,29.264l8.979-5.221
					c0.064,2.825,0.521,8.188,3.037,10.447c3.483,3.125,5.073-7.392,8.266-7.004s4.208,12.894,8.707,14.066
					c4.499,1.172,5.949-17.768,13.785-19.338c7.836-1.568,5.659,26.049,15.236,26.049s0.074-27.422,14.73-27.422
					s8.993,39.44,20.195,51.025c11.689,12.089,5.561-52.004,15.574-52.004s8.997,15.045,16.543,15.045s4.208-5.861,8.852-5.861
					c4.643,0,7.838,11.723,12.191,11.723c2.129,0,3.72-0.443,4.871-1.287l0.004,0.025l11.461-6.146l-17.186-32.141
					C-238.116,275.122-262.745,251.355-291.383,251.355L-291.383,251.355z"/>
			</g>

				<radialGradient id="SVGID_1_" cx="-956.1505" cy="-106.2269" r="24.984" gradientTransform="matrix(1.0081 0 0 -1.0125 684.8637 -24.0979)" gradientUnits="userSpaceOnUse">
				<stop  offset="0" style="stop-color:#FFFFFF"/>
				<stop  offset="1" style="stop-color:#FFFFFF;stop-opacity:0"/>
			</radialGradient>
			<path style="fill:url(#SVGID_1_);" d="M-288.83,60.424c-9.197,3.941-15.17,13.009-15.182,23.053
				c0,13.859,11.185,25.095,24.983,25.096c0,0,0.001,0,0.001,0c11.155-0.011,20.952-7.448,24.006-18.225
				C-265.3,79.298-276.623,69.276-288.83,60.424z"/>
			<path style="fill:#F8F8F8;" d="M-314.42,79.668c-6.157-0.083-12.221,1.184-17.514,3.66c-10.247,4.795-16.433,13.55-16.203,22.93
				c29.835-0.666,59.589-0.641,89.354-0.311c0.001-8.827-9.007-16.018-20.223-16.143c-2.927-0.027-5.827,0.439-8.506,1.367
				c-2.853-3.335-6.647-6.105-11.086-8.096C-303.425,80.915-308.866,79.743-314.42,79.668z"/>
		</g>
		<path style="opacity:0.15;fill:#3B3C3D;enable-background:new    ;" d="M-425.008,556.284
			c-100.229,0-185.643,63.582-218.214,152.701c38.33-82.256,121.604-139.241,218.184-139.241
			c96.582,0,179.885,56.982,218.214,139.241C-239.387,619.866-324.779,556.284-425.008,556.284L-425.008,556.284z"/>
	</g>
</g>
</svg>
